# xmcd
#
# Track frame offsets:
#	150
#	10580
#	24993
#	35684
#	47499
#	59704
#	72803
#	85036
#	100492
#	111050
#	120503
#	132022
#	144331
#	155150
#	169025
#	179373
#	195328
#	206354
#	219057
#	227972
#	241143
#	254327
#	266189
#	276555
#	289078
#	303164
#	311433
#	320558
#
# Disc length: 4442 seconds
#
# Revision: 1
# Processed by: cddbd v1.5.2PL0 Copyright (c) Steve Scherf et al.
# Submitted via: audiograbber 1.83.01
#
DISCID=8911581c
DTITLE=Dolly Parton and Porter Wagoner - Just Between You And Me [CD 4)
DYEAR=2014
DGENRE=Country
TTITLE0=Anyplace You Want To Go
TTITLE1=Somewhere Along The Way
TTITLE2=The Fog Has Lifted
TTITLE3=Looking Down
TTITLE4=If You Go, I'll Follow You
TTITLE5=Waldo The Weirdo
TTITLE6=I've Been This Way Too Long
TTITLE7=Lost Forever In You Kiss
TTITLE8=Sounds Of Nature
TTITLE9=Through Thick And Thin
TTITLE10=We Found It
TTITLE11=Poor Folks Town
TTITLE12=Together You And I
TTITLE13=Christina
TTITLE14=Together Always
TTITLE15=Ten Four-Over And Out
TTITLE16=There's Singing On The Mountain
TTITLE17=Say Forever You'll Be Mine
TTITLE18=That's When Love Will Mean Most
TTITLE19=Love Have Mercy On Us
TTITLE20=Sweet Rachel Ann
TTITLE21=Satan's River
TTITLE22=I Am Always Waiting
TTITLE23=I've Been Married (Just As Long As You Have)
TTITLE24=Little David's Harp
TTITLE25=Between Us
TTITLE26=Love City
TTITLE27=In The Presence Of You
EXTD=
EXTT0=
EXTT1=
EXTT2=
EXTT3=
EXTT4=
EXTT5=
EXTT6=
EXTT7=
EXTT8=
EXTT9=
EXTT10=
EXTT11=
EXTT12=
EXTT13=
EXTT14=
EXTT15=
EXTT16=
EXTT17=
EXTT18=
EXTT19=
EXTT20=
EXTT21=
EXTT22=
EXTT23=
EXTT24=
EXTT25=
EXTT26=
EXTT27=
PLAYORDER=
